<?xml version="1.0" encoding="UTF-8"?>
<svg width="48" height="48" viewBox="0 0 48 48" fill="none" xmlns="http://www.w3.org/2000/svg" aria-hidden="true">
  <!-- Outer white ring -->
  <circle cx="24" cy="24" r="22" fill="white"/>
  <!-- WhatsApp green circle -->
  <circle cx="24" cy="24" r="20" fill="#25D366"/>
  <!-- Phone handset (simplified, legible) -->
  <path fill="#ffffff" d="M20.8 14.8c.28 0 .58.01.9.03.63.04.98.46 1.12 1.05.18.77.45 1.51.79 2.22.22.47.12.92-.31 1.34-.29.31-.58.61-.89.9-.26.26-.3.49-.15.82 1.06 2.26 2.83 3.78 5.16 4.66.26.1.48.05.67-.15.35-.35.7-.69 1.04-1.05.4-.41.85-.49 1.36-.28.61.25 1.23.48 1.86.7.52.19.81.55.85 1.09.05.68-.08 1.35-.38 1.96-.46.95-1.23 1.53-2.19 1.84-.87.27-1.75.22-2.64.05-1.66-.31-3.15-.99-4.47-1.92-1.76-1.27-3.17-2.86-4.23-4.74-.53-1-.92-1.96-1.06-3.05-.15-1.07-.09-2.13.34-3.16.39-.93 1.06-1.53 2.02-1.76.2-.04.41-.06.63-.06Z"/>
</svg>
